<?xml version="1.0" encoding="UTF-8"?> <svg xmlns="http://www.w3.org/2000/svg" xmlns:xlink="http://www.w3.org/1999/xlink" width="30.205" height="30.204" viewBox="0 0 30.205 30.204"><defs><linearGradient id="linear-gradient" x1="1" x2="0" y2="1" gradientUnits="objectBoundingBox"><stop offset="0" stop-color="#c52fef"></stop><stop offset="0.597" stop-color="#6991f0"></stop><stop offset="1" stop-color="#24d2ee"></stop></linearGradient></defs><path id="browser" d="M4.719,4A.719.719,0,0,0,4,4.719v7.192a.719.719,0,0,0,.719.719H33.485a.719.719,0,0,0,.719-.719V4.719A.719.719,0,0,0,33.485,4Zm.719,1.438H32.766v5.753H5.438ZM8.315,7.6a.719.719,0,1,0,.719.719A.719.719,0,0,0,8.315,7.6Zm2.877,0a.719.719,0,1,0,.719.719A.719.719,0,0,0,11.192,7.6Zm2.877,0a.719.719,0,1,0,.719.719A.719.719,0,0,0,14.068,7.6ZM4,14.787v18.7a.719.719,0,0,0,.719.719H33.485a.719.719,0,0,0,.719-.719v-18.7H32.766V32.766H5.438V14.787Zm4.315,0a.719.719,0,0,0-.719.719V29.89a.719.719,0,0,0,.719.719h9.349a.719.719,0,0,0,.719-.719V15.506a.719.719,0,0,0-.719-.719Zm12.226,0v1.438H30.609V14.787ZM9.034,16.226h7.911V29.17H9.034Zm11.506,2.157v1.438H30.609V18.383Zm0,3.6v1.438H30.609V21.979Zm0,3.6v1.438H30.609V25.575Zm0,3.6v1.438H30.609V29.17Z" transform="translate(-4 -4)" fill="url(#linear-gradient)"></path></svg> 