<?xml version="1.0" encoding="UTF-8"?> <svg xmlns="http://www.w3.org/2000/svg" xmlns:xlink="http://www.w3.org/1999/xlink" width="46" height="46.014" viewBox="0 0 46 46.014"><defs><linearGradient id="linear-gradient" x1="0.5" x2="0.5" y2="1" gradientUnits="objectBoundingBox"><stop offset="0" stop-color="#c52fef"></stop><stop offset="0.597" stop-color="#6991f0"></stop><stop offset="1" stop-color="#24d2ee"></stop></linearGradient></defs><path id="chart" d="M24.984,1.986a1,1,0,0,0-.17.018,23.026,23.026,0,1,0,16.848,7.16,1,1,0,0,0-.182-.191,23.153,23.153,0,0,0-3.4-2.879,1,1,0,0,0-.363-.246A22.877,22.877,0,0,0,25.188,2h0a1,1,0,0,0-.2-.018ZM24,4.025V16.059a9,9,0,1,0,6.609,15.967l8.5,8.5A20.992,20.992,0,1,1,24,4.025Zm2,0c.218.01.434.03.65.047l-.65.65Zm3.121.4a20.893,20.893,0,0,1,2.518.654L26,10.723V7.547q.037-.031.07-.066Zm4.555,1.445a20.9,20.9,0,0,1,2.08,1.092L26.572,16.15c-.19-.034-.379-.07-.572-.092V13.551ZM37.453,8.1a21.061,21.061,0,0,1,1.963,1.652L30.742,18.09a9.014,9.014,0,0,0-2.014-1.266ZM40.8,11.193c.261.3.524.593.768.906a1,1,0,1,0,1.137,1.609,20.906,20.906,0,0,1,1.3,2.4,1,1,0,0,0,.273.588,20.828,20.828,0,0,1,1.383,4.559,1,1,0,1,0,.188,1.273,20.45,20.45,0,0,1,0,4.951,1,1,0,1,0-.189,1.273A20.856,20.856,0,0,1,44.3,33.287a1,1,0,0,0-.295.611A20.921,20.921,0,0,1,42.7,36.283,1,1,0,1,0,41.559,37.9c-.328.42-.673.823-1.031,1.217l-8.5-8.5A9.035,9.035,0,0,0,33.051,29a1,1,0,0,0,.645-1.715,8.735,8.735,0,0,0,0-4.567A1,1,0,0,0,33.059,21a9.025,9.025,0,0,0-.926-1.475ZM39,15a1,1,0,1,0,1,1A1,1,0,0,0,39,15Zm-3,3a1,1,0,1,0,1,1A1,1,0,0,0,36,18Zm6,0a1,1,0,1,0,1,1A1,1,0,0,0,42,18Zm-17.117.006a1,1,0,0,0,.242,0,7,7,0,1,1-.242,0ZM39,21a1,1,0,1,0,1,1A1,1,0,0,0,39,21Zm-3,3a1,1,0,1,0,1,1A1,1,0,0,0,36,24Zm6,0a1,1,0,1,0,1,1A1,1,0,0,0,42,24Zm-3,3a1,1,0,1,0,1,1A1,1,0,0,0,39,27Zm-3,3a1,1,0,1,0,1,1A1,1,0,0,0,36,30Zm6,0a1,1,0,1,0,1,1A1,1,0,0,0,42,30Zm-3,3a1,1,0,1,0,1,1A1,1,0,0,0,39,33Z" transform="translate(-2 -1.986)" fill="url(#linear-gradient)"></path></svg> 