<?xml version="1.0" encoding="utf-8"?>
<!-- Generator: Adobe Illustrator 24.0.2, SVG Export Plug-In . SVG Version: 6.00 Build 0)  -->
<svg version="1.1" id="Vrstva_1" xmlns="http://www.w3.org/2000/svg" xmlns:xlink="http://www.w3.org/1999/xlink" x="0px" y="0px"
	 width="115" height="123.73" viewBox="0 0 216.92 233.43" style="enable-background:new 0 0 216.92 233.43;" xml:space="preserve">
<style type="text/css">
	.st0{fill:#ffffff;}
	.st1{fill:#ffffff;}
</style>
<g>
	<linearGradient id="SVGID_1_" gradientUnits="userSpaceOnUse" x1="25.3967" y1="190.7523" x2="166.2511" y2="24.0338">
		<stop  offset="0" style="stop-color:#ED06EF"/>
		<stop  offset="0.597" style="stop-color:#6991F0"/>
		<stop  offset="1" style="stop-color:#02F3ED"/>
	</linearGradient>
	<path class="st0" d="M35.63,89.55v54.34c0,9.18,4.94,17.73,12.88,22.32l54.34,31.37v-12.94L54.12,156.5
		c-4.49-2.59-7.28-7.43-7.28-12.61V89.55c0-5.19,2.79-10.02,7.28-12.61l37.53-21.67v43.41l-1.87-1.12
		c-6.6-3.97-14.54-4.07-21.25-0.28c-6.7,3.79-10.71,10.65-10.71,18.36v0.9c0,8.42,4.52,16.29,11.79,20.54l33.24,19.42V35.86
		L48.52,67.23C40.57,71.82,35.63,80.37,35.63,89.55z M91.65,136.96l-16.38-9.57c-3.84-2.25-6.23-6.41-6.23-10.86v-0.9
		c0-3.61,1.88-6.83,5.02-8.6c1.53-0.87,3.2-1.3,4.87-1.3c1.75,0,3.5,0.48,5.09,1.43l7.64,4.59L91.65,136.96z"/>
	<linearGradient id="SVGID_2_" gradientUnits="userSpaceOnUse" x1="49.334" y1="210.976" x2="190.1884" y2="44.2576">
		<stop  offset="0" style="stop-color:#ED06EF"/>
		<stop  offset="0.597" style="stop-color:#6991F0"/>
		<stop  offset="1" style="stop-color:#02F3ED"/>
	</linearGradient>
	<path class="st1" d="M168.4,67.23l-54.34-31.37v12.94l48.74,28.14c4.49,2.59,7.28,7.43,7.28,12.61v54.34
		c0,5.19-2.79,10.02-7.28,12.61l-37.53,21.67v-66.42l7.64-4.59c3.1-1.86,6.83-1.91,9.97-0.13c3.14,1.78,5.02,5,5.02,8.61v36.58
		l7.4-4.27c2.36-1.36,3.81-3.88,3.81-6.6l-0.01-25.83c-0.04-7.65-4.03-14.47-10.7-18.24c-6.71-3.8-14.65-3.69-21.26,0.28l-1.87,1.13
		V68.21l-11.2-6.47l0,135.83l54.34-31.37c7.95-4.59,12.88-13.14,12.88-22.32V89.55C181.29,80.37,176.35,71.82,168.4,67.23z"/>
</g>
</svg>
