
<svg xmlns="http://www.w3.org/2000/svg" xmlns:xlink="http://www.w3.org/1999/xlink" width="172.085" height="50" viewBox="0 0 172.085 50">
	<defs>
		<linearGradient id="linear-gradient" x1="-0.124" y1="0.934" x2="1.97" y2="-0.066" gradientUnits="objectBoundingBox">
			<stop offset="0" stop-color="#ed06ef"/>
			<stop offset="0.597" stop-color="#6991f0"/>
			<stop offset="1" stop-color="#02f3ed"/>
		</linearGradient>
		<linearGradient id="linear-gradient-2" x1="-0.951" y1="1.057" x2="1.142" y2="0.057" xlink:href="#linear-gradient"/>
	</defs>
	<g id="digihive_dark_logo" transform="translate(-35.73 -35.852)">
		<g id="Group_9" data-name="Group 9" transform="translate(86.184 48.134)">
			<g id="Group_1" data-name="Group 1" transform="translate(0 0.658)">
				<path id="Path_1" data-name="Path 1" d="M213.242,77.5h4.46V101.7h-4.46V99.662a6.693,6.693,0,0,1-5.6,2.525,7.873,7.873,0,0,1-5.965-2.645,9.738,9.738,0,0,1,0-12.968,7.87,7.87,0,0,1,5.965-2.646,6.694,6.694,0,0,1,5.6,2.525Zm-8.214,19.071a4.664,4.664,0,0,0,3.441,1.366,4.605,4.605,0,0,0,3.423-1.366,5.242,5.242,0,0,0,0-7.02,4.608,4.608,0,0,0-3.423-1.366,4.666,4.666,0,0,0-3.441,1.366,5.193,5.193,0,0,0,0,7.02Z" transform="translate(-199.202 -77.497)"/>
			</g>
			<g id="Group_2" data-name="Group 2" transform="translate(21.442)">
				<path id="Path_2" data-name="Path 2" d="M271.407,80.865a2.777,2.777,0,0,1-2.732-2.733,2.679,2.679,0,0,1,.813-1.936,2.6,2.6,0,0,1,1.919-.831,2.635,2.635,0,0,1,1.953.831,2.68,2.68,0,0,1,.813,1.936,2.6,2.6,0,0,1-.684,1.783A2.825,2.825,0,0,1,271.407,80.865Zm-2.213,19.365V85.293a2.353,2.353,0,0,1,2.353-2.353h2.109v17.29Z" transform="translate(-268.675 -75.366)"/>
			</g>
			<g id="Group_3" data-name="Group 3" transform="translate(29.006 7.089)">
				<path id="Path_3" data-name="Path 3" d="M309.468,98.819h2.214v16.46a7.367,7.367,0,0,1-2.646,6.121,9.919,9.919,0,0,1-6.381,2.109,10.822,10.822,0,0,1-4.928-1.072,7.5,7.5,0,0,1-3.268-3.147l3.8-2.179a5.481,5.481,0,0,0,7.849,1.314,4.048,4.048,0,0,0,1.211-3.147v-1.867a6.516,6.516,0,0,1-5.533,2.628,8.16,8.16,0,0,1-6.138-2.577,9.158,9.158,0,0,1,.018-12.535,8.152,8.152,0,0,1,6.12-2.594,6.517,6.517,0,0,1,5.533,2.629h0A2.144,2.144,0,0,1,309.468,98.819Zm-10.46,11.774a5.2,5.2,0,0,0,6.951,0,4.887,4.887,0,0,0,0-6.777,5.2,5.2,0,0,0-6.951,0,4.885,4.885,0,0,0,0,6.777Z" transform="translate(-293.181 -98.334)"/>
			</g>
			<g id="Group_4" data-name="Group 4" transform="translate(50.44)">
				<path id="Path_4" data-name="Path 4" d="M365.359,80.865a2.777,2.777,0,0,1-2.731-2.733,2.679,2.679,0,0,1,.813-1.936,2.6,2.6,0,0,1,1.919-.831,2.634,2.634,0,0,1,1.953.831,2.68,2.68,0,0,1,.813,1.936,2.6,2.6,0,0,1-.683,1.782A2.825,2.825,0,0,1,365.359,80.865Zm-2.212,19.365V85.293A2.353,2.353,0,0,1,365.5,82.94h2.108v17.29Z" transform="translate(-362.628 -75.366)"/>
			</g>
			<g id="Group_5" data-name="Group 5" transform="translate(58.878 0.658)">
				<path id="Path_5" data-name="Path 5" d="M399.58,83.928a6.262,6.262,0,0,1,4.686,1.9,7.221,7.221,0,0,1,1.85,5.256V101.7h-4.461V91.64A3.539,3.539,0,0,0,400.721,89a3.4,3.4,0,0,0-2.49-.917,3.672,3.672,0,0,0-2.766,1.073,4.46,4.46,0,0,0-1.038,3.216V101.7h-4.461V77.5h4.461v8.852A5.761,5.761,0,0,1,399.58,83.928Z" transform="translate(-389.967 -77.497)"/>
			</g>
			<g id="Group_6" data-name="Group 6" transform="translate(77.966)">
				<path id="Path_6" data-name="Path 6" d="M454.542,80.865a2.776,2.776,0,0,1-2.731-2.733,2.679,2.679,0,0,1,.812-1.936,2.6,2.6,0,0,1,1.919-.831,2.635,2.635,0,0,1,1.953.831,2.68,2.68,0,0,1,.813,1.936,2.6,2.6,0,0,1-.684,1.782A2.825,2.825,0,0,1,454.542,80.865ZM452.33,100.23V85.293a2.353,2.353,0,0,1,2.353-2.353h2.108v17.29Z" transform="translate(-451.811 -75.366)"/>
			</g>
			<g id="Group_7" data-name="Group 7" transform="translate(85.529 7.574)">
				<path id="Path_7" data-name="Path 7" d="M491.3,99.905h3.238l-6.57,17.29h-5.083l-6.57-17.29h4.91l4.192,12.1,3.662-10.521A2.353,2.353,0,0,1,491.3,99.905Z" transform="translate(-476.316 -99.905)"/>
			</g>
			<g id="Group_8" data-name="Group 8" transform="translate(103.753 7.089)">
				<path id="Path_8" data-name="Path 8" d="M540.03,109.3q.9,3.251,4.876,3.251a4.562,4.562,0,0,0,3.873-1.729l3.6,2.075a8.577,8.577,0,0,1-7.539,3.7A9.3,9.3,0,0,1,537.955,114a9.123,9.123,0,0,1,6.535-15.665,8.245,8.245,0,0,1,6.276,2.629,9.128,9.128,0,0,1,2.473,6.5,10.491,10.491,0,0,1-.173,1.832Zm-.07-3.458h8.818a4.183,4.183,0,0,0-1.573-2.628,4.512,4.512,0,0,0-2.715-.865,4.694,4.694,0,0,0-2.974.916A4.38,4.38,0,0,0,539.96,105.839Z" transform="translate(-535.361 -98.334)"/>
			</g>
		</g>
		<g id="Group_10" data-name="Group 10" transform="translate(35.73 35.852)">
			<path id="Path_9" data-name="Path 9" d="M35.73,52.452v16.8a7.991,7.991,0,0,0,3.977,6.9l16.772,9.7v-4l-15.043-8.7a4.517,4.517,0,0,1-2.248-3.9v-16.8a4.517,4.517,0,0,1,2.248-3.9l11.585-6.7V55.273l-.576-.347a6.509,6.509,0,0,0-9.862,5.589v.277a7.38,7.38,0,0,0,3.638,6.349l10.259,6.005V35.852l-16.772,9.7A7.991,7.991,0,0,0,35.73,52.452ZM53.02,67.11l-5.056-2.96a3.9,3.9,0,0,1-1.924-3.358v-.277a3.043,3.043,0,0,1,4.623-2.62l2.357,1.419Z" transform="translate(-35.73 -35.852)" fill="url(#linear-gradient)"/>
			<path id="Path_10" data-name="Path 10" d="M130.931,45.552l-16.772-9.7v4l15.043,8.7a4.517,4.517,0,0,1,2.248,3.9v16.8a4.516,4.516,0,0,1-2.248,3.9l-11.585,6.7V59.316l2.359-1.42a3.054,3.054,0,0,1,4.627,2.621V71.826l2.282-1.32a2.356,2.356,0,0,0,1.176-2.04l0-7.985a6.511,6.511,0,0,0-9.865-5.554l-.578.348v-9.42l-3.458-2v42l16.772-9.7a7.991,7.991,0,0,0,3.977-6.9v-16.8A7.991,7.991,0,0,0,130.931,45.552Z" transform="translate(-89.953 -35.852)" fill="url(#linear-gradient-2)"/>
		</g>
	</g>
</svg>
