<?xml version="1.0" encoding="UTF-8"?> <svg xmlns="http://www.w3.org/2000/svg" xmlns:xlink="http://www.w3.org/1999/xlink" width="32" height="32" viewBox="0 0 32 32"><defs><linearGradient id="linear-gradient" x1="0.5" x2="0.5" y2="1" gradientUnits="objectBoundingBox"><stop offset="0" stop-color="#c52fef"></stop><stop offset="0.597" stop-color="#6991f0"></stop><stop offset="1" stop-color="#24d2ee"></stop></linearGradient></defs><path id="marketing" d="M18,2A16.021,16.021,0,1,0,31.431,9.319l-.621.621-.4.4a14.7,14.7,0,1,1-3.37-3.776V7.973L25.349,9.667A11.017,11.017,0,1,0,27.2,11.749l-1.008,1.008a9.809,9.809,0,1,1-1.829-2.106L21.9,13.118a6.264,6.264,0,1,0,1.746,2.19l-1.061,1.06a4.892,4.892,0,1,1-1.673-2.262l-2.552,2.552a1.389,1.389,0,1,0,.985.982l8.683-8.683h1.8L33.3,5.478H30.522V2.7L27.827,5.39A15.909,15.909,0,0,0,18,2Z" transform="translate(-2 -2)" fill="url(#linear-gradient)"></path></svg> 