<svg xmlns="http://www.w3.org/2000/svg" xmlns:xlink="http://www.w3.org/1999/xlink" width="64.004" height="63.999" viewBox="0 0 64.004 63.999">
    <defs>
        <linearGradient id="linear-gradient" x1="0.036" y1="0.979" x2="0.978" y2="0.043" gradientUnits="objectBoundingBox">
            <stop offset="0" stop-color="#c52fef"/>
            <stop offset="0.597" stop-color="#6991f0"/>
            <stop offset="1" stop-color="#24d2ee"/>
        </linearGradient>
    </defs>
    <path id="ico-send-circle" d="M-11762,14225a31.786,31.786,0,0,1-12.455-2.515,31.893,31.893,0,0,1-10.173-6.857,31.933,31.933,0,0,1-6.858-10.173A31.792,31.792,0,0,1-11794,14193a31.778,31.778,0,0,1,2.515-12.454,31.9,31.9,0,0,1,6.858-10.171,31.893,31.893,0,0,1,10.173-6.857A31.786,31.786,0,0,1-11762,14161a31.786,31.786,0,0,1,12.455,2.515,31.893,31.893,0,0,1,10.173,6.857,31.871,31.871,0,0,1,6.858,10.171A31.786,31.786,0,0,1-11730,14193a31.8,31.8,0,0,1-2.516,12.457,31.9,31.9,0,0,1-6.858,10.173,31.893,31.893,0,0,1-10.173,6.857A31.786,31.786,0,0,1-11762,14225Zm15.1-49a1.008,1.008,0,0,0-.108.006.862.862,0,0,0-.258.086l-36.192,15.551a.9.9,0,0,0-.535.811.915.915,0,0,0,.507.832l13.487,6.729,6.729,13.487a.92.92,0,0,0,.814.511h.018a.913.913,0,0,0,.811-.539l15.551-36.192a.906.906,0,0,0-.093-.911A.91.91,0,0,0-11746.9,14176Zm-15.635,34.957v0l-5.711-11.423,18.664-18.66-12.951,30.083Zm-6.983-12.7h0l-11.424-5.712,30.089-12.952-18.664,18.664Z" transform="translate(11794.002 -14161.001)" fill="url(#linear-gradient)"/>
</svg>