<?xml version="1.0" encoding="UTF-8"?> <svg xmlns="http://www.w3.org/2000/svg" xmlns:xlink="http://www.w3.org/1999/xlink" width="50.07" height="41.987" viewBox="0 0 50.07 41.987"><defs><linearGradient id="linear-gradient" x1="0.5" x2="0.5" y2="1" gradientUnits="objectBoundingBox"><stop offset="0" stop-color="#c52fef"></stop><stop offset="0.597" stop-color="#6991f0"></stop><stop offset="1" stop-color="#24d2ee"></stop></linearGradient></defs><g id="money" transform="translate(0.112 -5)"><path id="Path_70" data-name="Path 70" d="M32,5a6.017,6.017,0,0,0-6,6,7,7,0,1,0,7,7,6.853,6.853,0,0,0-.094-1.062A6,6,0,0,0,32,5Zm0,2a3.989,3.989,0,0,1,.281,7.969,7.04,7.04,0,0,0-4.25-3.656C28.023,11.207,28,11.106,28,11A3.988,3.988,0,0,1,32,7Zm-.437,1.75-1.5,1.5H31.25v3h1.5V8.75ZM26,13a5,5,0,1,1-5,5A4.985,4.985,0,0,1,26,13Zm-.5,2.281-1.812,1.813h1.406v3.625h1.813V15.281ZM13.469,25a12.427,12.427,0,0,0-5.563,1.25C5.2,27.324.563,29.563.563,29.563a1,1,0,1,0,.875,1.781s4.672-2.242,7.219-3.25A9.893,9.893,0,0,1,13.469,27c5.617,0,5.449,2.527,7.75,3.906a14.634,14.634,0,0,0,3.594,1.25.988.988,0,0,0,.406.125c.012,0,.02,0,.031,0A21.875,21.875,0,0,0,30,33a7.017,7.017,0,0,1,1.5.156h.063a2.992,2.992,0,0,1,.875.344.99.99,0,0,1,.563,1,.955.955,0,0,1-.562,1.031A5.115,5.115,0,0,1,30,36H24.188a27.448,27.448,0,0,1-5.906-.969,1.009,1.009,0,0,0-.562,1.938A27.579,27.579,0,0,0,24.188,38H30a6.642,6.642,0,0,0,3.438-.75,3.087,3.087,0,0,0,.719-.594,1,1,0,0,0,.25-.125l9-6.063a6.641,6.641,0,0,1,3.281-1.156,1.141,1.141,0,0,1,1.063.469.866.866,0,0,1,.125,1.063,4.807,4.807,0,0,1-1.687,1.781c-1.2.852-14.414,9.633-15.969,10.531a15.2,15.2,0,0,1-3.125,1.688c-1.059.3-2.324.277-4.375-.719-1.367-.664-7.156-3.687-9.031-4.656a5.357,5.357,0,0,0-2.781-.781,5.152,5.152,0,0,0-2.469.969L5.75,41.406a1.005,1.005,0,0,0,1.094,1.688l2.688-1.75A3.254,3.254,0,0,1,11,40.688a3.666,3.666,0,0,1,1.781.563c1.859.961,7.559,3.957,9.063,4.688a7.975,7.975,0,0,0,5.781.813,14.693,14.693,0,0,0,3.594-1.875C33.3,43.668,45.84,35.316,47.344,34.25a6.462,6.462,0,0,0,2.375-2.656,3.06,3.06,0,0,0-.375-3.031,3.349,3.349,0,0,0-2.625-1.25,7.3,7.3,0,0,0-2.937.781c-.043-.2.059-.43-.031-.625a2.7,2.7,0,0,0-1.969-1.406,6.174,6.174,0,0,0-3.625.688,2.24,2.24,0,0,0-.344-.781,2.817,2.817,0,0,0-2.031-.906,7.078,7.078,0,0,0-4,1c-1.5.891-5.969,3.711-6.625,4.125a16.337,16.337,0,0,1-2.906-1C21.336,28.637,19.773,25,13.469,25Zm22.156,2.063a1.025,1.025,0,0,1,.656.219c.043.051.117.129.094.406v.031l-4.937,3.375A9.313,9.313,0,0,0,30,31a14.267,14.267,0,0,1-2.031-.219c1.738-1.094,3.891-2.434,4.844-3A5.959,5.959,0,0,1,35.625,27.063ZM40.75,28a2.433,2.433,0,0,1,.656,0c.414.082.465.168.531.313a1.707,1.707,0,0,1,.031.719l-7.062,4.75a3.188,3.188,0,0,0-1.187-1.813l4.125-2.844a646.223,646.223,0,0,1,.313-.25A6.381,6.381,0,0,1,40.75,28Z" fill="url(#linear-gradient)"></path></g></svg> 