<?xml version="1.0" encoding="UTF-8"?> <svg xmlns="http://www.w3.org/2000/svg" xmlns:xlink="http://www.w3.org/1999/xlink" width="46" height="43.521" viewBox="0 0 46 43.521"><defs><linearGradient id="linear-gradient" x1="0.5" x2="0.5" y2="1" gradientUnits="objectBoundingBox"><stop offset="0" stop-color="#c52fef"></stop><stop offset="0.597" stop-color="#6991f0"></stop><stop offset="1" stop-color="#24d2ee"></stop></linearGradient></defs><g id="optimalization" transform="translate(-2 -2.563)"><path id="Path_76" data-name="Path 76" d="M18.5,2.563a7.514,7.514,0,0,0-7.5,7.5,7.426,7.426,0,0,0,.75,3.25l1.781-.875A5.391,5.391,0,0,1,13,10.063a5.5,5.5,0,0,1,11,0h2A7.514,7.514,0,0,0,18.5,2.563ZM37.188,6.938a1.168,1.168,0,0,0-.125.031A.466.466,0,0,0,37,7a11.044,11.044,0,0,0-7.281,5.594,25.843,25.843,0,0,0-5.469-.656,21.378,21.378,0,0,0-13.562,4.469A12.584,12.584,0,0,0,6.656,22a4.953,4.953,0,0,1-1.187-.594A2.965,2.965,0,0,1,4,18.781a2.442,2.442,0,0,1,1.344-2.344A1,1,0,0,0,4.938,14.5a1.039,1.039,0,0,0-.375.094A4.473,4.473,0,0,0,2,18.781a5.153,5.153,0,0,0,2.344,4.281,6.509,6.509,0,0,0,1.719.844,18.38,18.38,0,0,0-.406,4.875c.188,4.453,3.2,7.719,5.469,9.531h.031a1.124,1.124,0,0,1,.281.281c.016.027.063-.035-.031.25-.3.922-.875,2.313-.875,2.313v.031a2.719,2.719,0,0,0,1.563,3.5v.031l3.219,1.188a2.751,2.751,0,0,0,3.531-1.562s.4-1.125.75-2.062a.694.694,0,0,1,.125-.219c.039,0,.043.016.125.031a18.794,18.794,0,0,0,4.406.531,39.942,39.942,0,0,0,4.438-.281,1.862,1.862,0,0,1,.219,0c.016.027.012.051.031.094,0,.016,0,.016,0,.031.32.957.707,1.848.719,1.875s.023.016.031.031a2.706,2.706,0,0,0,3.469,1.531l3.219-1.187v-.031a2.711,2.711,0,0,0,1.563-3.5l-.5-1.344a1.275,1.275,0,0,0-.094-.156s.031,0,.031,0-.137.051.188-.125a12.885,12.885,0,0,0,5.469-5.812,1.788,1.788,0,0,1,.281-.469c.078-.074.125-.125.438-.125h1.625A2.641,2.641,0,0,0,48,30.531V25.656a2.638,2.638,0,0,0-2.625-2.625H43.75A.929.929,0,0,1,43.406,23a11.129,11.129,0,0,0-6.719-8.312,18.4,18.4,0,0,1,1.5-6.375,1,1,0,0,0-1-1.375ZM35.625,9.75a16.482,16.482,0,0,0-1,5.531,1,1,0,0,0,.688.938,8.935,8.935,0,0,1,6.125,7.219,2.2,2.2,0,0,0,2.313,1.594h1.625a.615.615,0,0,1,.625.625v4.875a.615.615,0,0,1-.625.625H43.75a2.718,2.718,0,0,0-1.812.656,3.131,3.131,0,0,0-.719,1.063,10.732,10.732,0,0,1-4.594,4.906,2.345,2.345,0,0,0-1.25,1.844,1.6,1.6,0,0,0,.219.906h-.031l.063.156.438,1.219a.713.713,0,0,1-.406.938l-3.219,1.219a.727.727,0,0,1-.937-.437v-.031s-.391-.895-.687-1.781a2.144,2.144,0,0,0-.844-1.219,2.2,2.2,0,0,0-1.406-.25,39.6,39.6,0,0,1-4.312.281,17.01,17.01,0,0,1-4.062-.5,2.113,2.113,0,0,0-1.5.156,2.209,2.209,0,0,0-.937,1.313c-.344.922-.781,2.031-.781,2.031a.73.73,0,0,1-.937.438l-3.219-1.219a.714.714,0,0,1-.406-.937c.016-.043.563-1.383.906-2.437a2.36,2.36,0,0,0-.156-1.906,2.806,2.806,0,0,0-.781-.812c-2.023-1.617-4.57-4.492-4.719-8.062-.211-5.066,1.527-8.6,4.25-10.719A19.233,19.233,0,0,1,24.25,13.938a23.893,23.893,0,0,1,5.719.688,1,1,0,0,0,1.156-.562A8.051,8.051,0,0,1,35.625,9.75Zm.844,13.344A1.9,1.9,0,0,0,34.563,25a1.907,1.907,0,1,0,3.813,0A1.9,1.9,0,0,0,36.469,23.094Z" fill="url(#linear-gradient)"></path></g></svg> 