<?xml version="1.0" encoding="UTF-8"?> <svg xmlns="http://www.w3.org/2000/svg" xmlns:xlink="http://www.w3.org/1999/xlink" width="50.027" height="43.014" viewBox="0 0 50.027 43.014"><defs><linearGradient id="linear-gradient" x1="0.5" x2="0.5" y2="1" gradientUnits="objectBoundingBox"><stop offset="0" stop-color="#c52fef"></stop><stop offset="0.597" stop-color="#6991f0"></stop><stop offset="1" stop-color="#24d2ee"></stop></linearGradient></defs><g id="strategy" transform="translate(0.014 -6)"><path id="Path_78" data-name="Path 78" d="M25.031,6A1,1,0,0,0,24,7v7.527a1.1,1.1,0,0,0,0,.32v8.738l-9,9-4.293-4.293a1,1,0,0,0-1.414,0l-9,9A1,1,0,0,0,.734,38.98a.992.992,0,0,0,.973-.273L10,30.414,13.586,34,.293,47.293A1,1,0,0,0,.734,48.98a.992.992,0,0,0,.973-.273L12.586,37.828l-.035.066,4.555,2.277L21,37.25l4,3,4-3,3.895,2.922,4.555-2.277-.035-.066L48.293,48.707a1,1,0,1,0,1.414-1.414L36.414,34,40,30.414l8.293,8.293a1,1,0,1,0,1.414-1.414l-9-9a1,1,0,0,0-1.414,0L35,32.586l-9-9V15.363l8.367-3.3a1,1,0,0,0,.051-1.84l-9-4.133A.955.955,0,0,0,25.031,6ZM26,8.563l5.453,2.5L26,13.215ZM25,25.414l9.152,9.148a1.021,1.021,0,0,0,.285.293l1.543,1.535-2.875,1.438L29,34.75l-4,3-4-3-4.105,3.078-2.875-1.437,1.543-1.543a1.021,1.021,0,0,0,.293-.285Z" fill="url(#linear-gradient)"></path></g></svg> 