<svg xmlns="http://www.w3.org/2000/svg">
    <symbol id="pin-circle" viewBox="0 0 48 49.94"><path id="Path_71" data-name="Path 71" d="M25,.063A13.955,13.955,0,0,0,11.063,14c0,6.367,3.34,13.668,6.625,19.469A98.281,98.281,0,0,0,24.25,43.563a.926.926,0,0,0,1.5,0,101.056,101.056,0,0,0,6.563-10.187C35.594,27.539,38.938,20.234,38.938,14A13.955,13.955,0,0,0,25,.063Zm0,1.875A12.04,12.04,0,0,1,37.063,14c0,5.555-3.156,12.75-6.375,18.469A89.8,89.8,0,0,1,25,41.406a85.682,85.682,0,0,1-5.687-8.844C16.1,26.883,12.938,19.7,12.938,14A12.04,12.04,0,0,1,25,1.938Zm0,6.094A6.969,6.969,0,1,0,31.969,15,6.985,6.985,0,0,0,25,8.031Zm0,1.938A5.031,5.031,0,1,1,19.969,15,5.013,5.013,0,0,1,25,9.969ZM15.156,34.156a34.882,34.882,0,0,0-9.875,2.719A10.417,10.417,0,0,0,2.25,38.938,4.134,4.134,0,0,0,1,41.75a4.7,4.7,0,0,0,2.219,3.625,17.712,17.712,0,0,0,5.219,2.438A57.041,57.041,0,0,0,25,50a57.041,57.041,0,0,0,16.563-2.187,17.712,17.712,0,0,0,5.219-2.437A4.7,4.7,0,0,0,49,41.75a4.141,4.141,0,0,0-1.25-2.812,10.418,10.418,0,0,0-3.031-2.062,34.881,34.881,0,0,0-9.875-2.719,1.012,1.012,0,1,0-.312,2,33.594,33.594,0,0,1,9.313,2.531,8.866,8.866,0,0,1,2.469,1.656A2.021,2.021,0,0,1,47,41.75c0,.574-.383,1.234-1.406,2a16.1,16.1,0,0,1-4.625,2.156A55.559,55.559,0,0,1,25,48,55.558,55.558,0,0,1,9.031,45.906,16.1,16.1,0,0,1,4.406,43.75C3.383,42.984,3,42.324,3,41.75a2.021,2.021,0,0,1,.688-1.406,8.866,8.866,0,0,1,2.469-1.656,33.593,33.593,0,0,1,9.313-2.531,1.012,1.012,0,0,0-.312-2Z" /></symbol>
    <symbol id="instagram"><path id="Path_3" data-name="Path 3" d="M15,2.667a45.993,45.993,0,0,1,6,.167,7.73,7.73,0,0,1,2.833.5,5.853,5.853,0,0,1,2.833,2.833A7.73,7.73,0,0,1,27.167,9c0,1.5.167,2,.167,6a45.993,45.993,0,0,1-.167,6,7.73,7.73,0,0,1-.5,2.833,5.853,5.853,0,0,1-2.833,2.833,7.73,7.73,0,0,1-2.833.5c-1.5,0-2,.167-6,.167a45.993,45.993,0,0,1-6-.167,7.73,7.73,0,0,1-2.833-.5,5.853,5.853,0,0,1-2.833-2.833A7.73,7.73,0,0,1,2.833,21c0-1.5-.167-2-.167-6a45.993,45.993,0,0,1,.167-6,7.73,7.73,0,0,1,.5-2.833A5.986,5.986,0,0,1,4.5,4.5,2.818,2.818,0,0,1,6.167,3.333,7.73,7.73,0,0,1,9,2.833a45.993,45.993,0,0,1,6-.167M15,0A49.245,49.245,0,0,0,8.833.167,10.289,10.289,0,0,0,5.167.833,6.525,6.525,0,0,0,2.5,2.5,6.525,6.525,0,0,0,.833,5.167,7.594,7.594,0,0,0,.167,8.833,49.245,49.245,0,0,0,0,15a49.245,49.245,0,0,0,.167,6.167,10.289,10.289,0,0,0,.667,3.667A6.525,6.525,0,0,0,2.5,27.5a6.525,6.525,0,0,0,2.667,1.667,10.289,10.289,0,0,0,3.667.667A49.245,49.245,0,0,0,15,30a49.245,49.245,0,0,0,6.167-.167,10.289,10.289,0,0,0,3.667-.667,6.992,6.992,0,0,0,4.333-4.333,10.289,10.289,0,0,0,.667-3.667C29.833,19.5,30,19,30,15a49.245,49.245,0,0,0-.167-6.167,10.289,10.289,0,0,0-.667-3.667A6.525,6.525,0,0,0,27.5,2.5,6.525,6.525,0,0,0,24.833.833,10.289,10.289,0,0,0,21.167.167,49.245,49.245,0,0,0,15,0m0,7.333A7.543,7.543,0,0,0,7.333,15,7.667,7.667,0,1,0,15,7.333M15,20a4.911,4.911,0,0,1-5-5,4.911,4.911,0,0,1,5-5,4.911,4.911,0,0,1,5,5,4.911,4.911,0,0,1-5,5M23,5.167A1.833,1.833,0,1,0,24.833,7,1.85,1.85,0,0,0,23,5.167" fill-rule="evenodd"/></symbol>
    <symbol id="arrow-left" viewBox="0 0 14.524 8.164"><g transform="translate(14.524) rotate(90)"><path id="Path_15" data-name="Path 15" d="M4.082,0,0,4.082l.873.854,2.6-2.6V14.524H4.689V2.335l2.6,2.6.873-.854Z" /></g></symbol>
    <symbol id="arrow-right" viewBox="0 0 14.524 8.164"><g transform="translate(14.524) rotate(90)"><path id="Path_15" data-name="Path 15" d="M4.082,0,0,4.082l.873.854,2.6-2.6V14.524H4.689V2.335l2.6,2.6.873-.854Z" /></g></symbol>
    <symbol id="arrow-down" viewBox="0 0 8.164 14.524"><g transform="translate(26.187 -14.805) rotate(90)"><g id="arrow-up" transform="translate(29.329 18.024) rotate(90)"><path id="Path_15" data-name="Path 15" d="M4.082,0,0,4.082l.873.854,2.6-2.6V14.524H4.689V2.335l2.6,2.6.873-.854Z" /></g></g></symbol>
    <symbol id="handshake" viewBox="0 0 50.108 44.463"><path data-name="Path 184" d="M34.219,4.125a7.569,7.569,0,0,0-2.969.781l-5.5,2.688H10.125L1.25,5.438a1.02,1.02,0,0,0-.406-.031A1,1,0,0,0,.75,7.375l9,2.188.125.031H21.656l-8.5,4.156c-.035.016-.059.047-.094.063a2.185,2.185,0,0,0-.687,3.438l-.031.031c.016.016.047.016.063.031A10.736,10.736,0,0,0,24.25,20.031h.031l5.875-2.281L42.281,29.906A2.32,2.32,0,1,1,39,33.188a1,1,0,0,0-1.406,1.406,2.337,2.337,0,0,1,0,3.313,2.3,2.3,0,0,1-3.281,0l-.719-.719a1,1,0,0,0-1.406,1.406,2.336,2.336,0,0,1,0,3.313,2.3,2.3,0,0,1-3.281,0l-.687-.719a1.005,1.005,0,0,0-1.437,1.406,2.337,2.337,0,0,1,0,3.313,2.3,2.3,0,0,1-3.281,0l-1.25-1.25.75-.75A3.75,3.75,0,0,0,20.344,37.5h-.031a3.736,3.736,0,0,0-3.75-3.812c-.051,0-.105,0-.156,0a3.791,3.791,0,0,0-3.75-3.906c-.051,0-.105,0-.156,0A3.758,3.758,0,0,0,6.094,27l-.906.906-4.031-.687a1.037,1.037,0,0,0-.187-.031,1,1,0,0,0-.125,2l3.281.594a3.72,3.72,0,0,0,3.781,4.625,3.746,3.746,0,0,0,3.906,3.906,3.74,3.74,0,0,0,3.813,3.875,3.708,3.708,0,0,0,1.063,2.719l.031.031a3.752,3.752,0,0,0,3.844.844l1.531,1.531a4.352,4.352,0,0,0,6.125,0,4.284,4.284,0,0,0,1.219-2.969,4.256,4.256,0,0,0,4.156-1.031,4.318,4.318,0,0,0,1.25-2.969,4.167,4.167,0,0,0,5.344-4.562,4.245,4.245,0,0,0,4.688-5.156l.594-.594,3.688-.531a1.012,1.012,0,0,0-.312-2l-4,.625-.312.031-.594.594c-.07-.082-.141-.172-.219-.25L31.406,16.188a.956.956,0,0,0-.156-.125l-.031-.031a1,1,0,0,0-1.187-.375l-6.5,2.5a8.689,8.689,0,0,1-9.687-2.219l-.031-.031c-.129-.129-.137-.219.031-.281h.063l.031-.031L26.281,9.563a1.006,1.006,0,0,0,.563-.281l5.281-2.594h.031a5.628,5.628,0,0,1,5.688.406l.375.438.094.125.125.063A7.282,7.282,0,0,0,44.5,8.75v.031l.063-.031,4.656-.969a1.008,1.008,0,0,0-.437-1.969l-4.687,1-.031.031h-.031a5.255,5.255,0,0,1-4.375-.75l-.375-.437-.094-.094-.125-.094A7.591,7.591,0,0,0,35.25,4.125,8.257,8.257,0,0,0,34.219,4.125ZM8.75,27.844a1.787,1.787,0,0,1,1.25.563,1.694,1.694,0,0,1,0,2.5l-.781.75-.094.094L9,31.906a1.694,1.694,0,0,1-2.5,0,1.663,1.663,0,0,1-.312-2.062,1.017,1.017,0,0,0,.375-.5l.813-.781.125-.156A1.787,1.787,0,0,1,8.75,27.844Zm3.906,3.906a1.787,1.787,0,0,1,1.25.563,1.659,1.659,0,0,1,0,2.469l-1,1a1.694,1.694,0,0,1-2.5,0,1.659,1.659,0,0,1,0-2.469l1-1A1.786,1.786,0,0,1,12.656,31.75Zm3.906,3.906a1.719,1.719,0,0,1,1.219.563,1.639,1.639,0,0,1,.313,2.063,3.4,3.4,0,0,0-.406.313l-1,1v.031h-.031a3.6,3.6,0,0,0-.281.375,1.639,1.639,0,0,1-2.062-.312,1.658,1.658,0,0,1,0-2.469l.75-.781.188-.156.063-.062A1.787,1.787,0,0,1,16.563,35.656Zm3.781,3.813a1.748,1.748,0,0,1,1.25.531,1.694,1.694,0,0,1,0,2.5l-1,1a2.169,2.169,0,0,1-.25.25c-.008,0-.024,0-.031,0a1.684,1.684,0,0,1-2.219-.25,2,2,0,0,1-.25-2.125,3.774,3.774,0,0,0,.375-.281l1-1a3.693,3.693,0,0,0,.344-.437A1.754,1.754,0,0,1,20.344,39.469Z" transform="translate(0.096 -4.109)" /></symbol>
    <symbol id="testing" viewBox="0 0 36.417 46"><g transform="translate(-6)"><path id="Path_141" data-name="Path 141" d="M24.208,0a3.8,3.8,0,0,0-3.654,2.875H8.875A2.89,2.89,0,0,0,6,5.75V43.125A2.89,2.89,0,0,0,8.875,46H39.542a2.89,2.89,0,0,0,2.875-2.875V5.75a2.89,2.89,0,0,0-2.875-2.875H27.862A3.8,3.8,0,0,0,24.208,0Zm0,1.917a1.9,1.9,0,0,1,1.917,1.917.96.96,0,0,0,.958.958h2.875V6.708h-11.5V4.792h2.875a.96.96,0,0,0,.958-.958A1.9,1.9,0,0,1,24.208,1.917ZM8.875,4.792h7.667V7.667a.96.96,0,0,0,.958.958H30.917a.96.96,0,0,0,.958-.958V4.792h7.667a.942.942,0,0,1,.958.958V43.125a.942.942,0,0,1-.958.958H8.875a.942.942,0,0,1-.958-.958V5.75A.942.942,0,0,1,8.875,4.792ZM34.75,16.232a.952.952,0,0,0-.15.03.442.442,0,0,0-.06.03.958.958,0,0,0-.6.419l-3.174,4.762-2.036-2.036a.962.962,0,0,0-.779-.3,1.118,1.118,0,0,0-.12.03.952.952,0,0,0-.749.674.963.963,0,0,0,.27.973l2.755,2.755a.453.453,0,0,0,.06.06l.06.06.03.03.03.03.03.03a1.191,1.191,0,0,0,.12.06.459.459,0,0,0,.06.03.447.447,0,0,0,.06.03h.03a.454.454,0,0,0,.06.03h.03a.446.446,0,0,0,.06.03h.12a1.443,1.443,0,0,0,.18,0h.03a1.032,1.032,0,0,0,.21-.06.448.448,0,0,0,.06-.03.867.867,0,0,0,.09-.03.459.459,0,0,0,.06-.06.452.452,0,0,0,.06-.03.511.511,0,0,0,.09-.09c.022-.03.041-.06.06-.09l.03-.03.03-.03a.868.868,0,0,0,.03-.09l3.773-5.63a.959.959,0,0,0-.809-1.557ZM13.4,19.167a.968.968,0,1,0,.269,1.917H23.25a.958.958,0,1,0,0-1.917H13.4ZM34.75,28.69a.951.951,0,0,0-.15.03.442.442,0,0,0-.06.03.958.958,0,0,0-.6.419l-3.174,4.762-2.036-2.036a.962.962,0,0,0-.779-.3,1.117,1.117,0,0,0-.12.03.952.952,0,0,0-.749.674.963.963,0,0,0,.27.973l2.755,2.755a.453.453,0,0,0,.06.06l.06.06.03.03.03.03.03.03a1.193,1.193,0,0,0,.12.06.46.46,0,0,0,.06.03.447.447,0,0,0,.06.03h.03a.453.453,0,0,0,.06.03h.03a.447.447,0,0,0,.06.03h.12a1.442,1.442,0,0,0,.18,0h.03a1.032,1.032,0,0,0,.21-.06.447.447,0,0,0,.06-.03.867.867,0,0,0,.09-.03.459.459,0,0,0,.06-.06.453.453,0,0,0,.06-.03.511.511,0,0,0,.09-.09c.022-.03.041-.06.06-.09l.03-.03.03-.03a.868.868,0,0,0,.03-.09l3.773-5.63a.959.959,0,0,0-.809-1.557ZM13.4,31.625a.968.968,0,1,0,.269,1.917H23.25a.958.958,0,1,0,0-1.917H13.4Z" /></g></symbol>
    <symbol id="phone" viewBox="0 0 16.162 15.489"><path d="M16.1,13.027a.936.936,0,0,0-.92,0l-1.438.821a.932.932,0,0,1-1.019-.059,23.137,23.137,0,0,1-2.046-1.709A22.727,22.727,0,0,1,8.9,10.124a.834.834,0,0,1-.061-.976l.857-1.378a.837.837,0,0,0,0-.884L7.587,3.432a.926.926,0,0,0-1-.406,3.012,3.012,0,0,0-1.4.8C3.562,5.388,2.7,8.017,8.813,13.877S17.669,18.91,19.3,17.351a2.844,2.844,0,0,0,.84-1.341.853.853,0,0,0-.422-.958Z" transform="translate(-4 -3)" /></symbol>
    <symbol id="mail" viewBox="0 0 20.669 13.287"><path d="M2.135,6l8.322,7.767a1.289,1.289,0,0,0,1.756,0L20.534,6ZM1,6.96V18.243l5.836-5.836Zm20.669,0-5.836,5.447,5.836,5.836ZM7.915,13.415,2.044,19.287H20.625l-5.872-5.872-1.533,1.43a2.772,2.772,0,0,1-3.773,0Z" transform="translate(-1 -6)" /></symbol>
    <symbol id="linkedin" viewBox="0 0 15.185 14.524"><path d="M7.3,17.524H4v-9.9H7.3ZM5.651,6.3A1.65,1.65,0,1,1,7.3,4.65,1.651,1.651,0,0,1,5.651,6.3ZM19.185,17.524H16.011V12.7c0-1.149-.022-2.628-1.65-2.628-1.652,0-1.907,1.252-1.907,2.544v4.9H9.282V7.614h3.046V8.968h.043a3.356,3.356,0,0,1,3-1.6c3.215,0,3.809,2.053,3.809,4.721Z" transform="translate(-4 -3)" /></symbol>
    <symbol id="hyperlink" viewBox="0 0 13.703 13.703"><g id="hyperlink" transform="translate(-5 -5)"><path id="Path_170" data-name="Path 170" d="M13.1,5V6.246h3.465L8.912,13.9l.9.9,7.65-7.65v3.465H18.7V5ZM5,7.491V18.7H16.212v-8.1l-1.246,1.246v5.606H6.246V8.737h5.606L13.1,7.491Z" transform="translate(0 0)" /></g></symbol>
    <symbol id="load" viewBox="0 0 25 25"><g id="Group_290" data-name="Group 290" transform="translate(-1045 -3240)"><path id="refresh" d="M11.25,2A8.741,8.741,0,0,0,2.6,9.5H0l3.333,4.931L6.667,9.5H4.294a7.075,7.075,0,1,1,.98,5.036l-1,1.479A8.746,8.746,0,1,0,11.25,2Z" transform="translate(1046.25 3241.75)"/></g></symbol>
</svg>
