<svg width="0" height="0" class="hidden">
  <symbol xmlns="http://www.w3.org/2000/svg" xmlns:xlink="http://www.w3.org/1999/xlink" viewBox="0 0 30.205 30.204" id="browser">
    <defs>
      <linearGradient id="linear-gradient" x1="1" x2="0" y2="1" gradientUnits="objectBoundingBox">
        <stop offset="0" stop-color="#c52fef"></stop>
        <stop offset="0.597" stop-color="#6991f0"></stop>
        <stop offset="1" stop-color="#24d2ee"></stop>
      </linearGradient>
    </defs>
    <path id="browser" d="M4.719,4A.719.719,0,0,0,4,4.719v7.192a.719.719,0,0,0,.719.719H33.485a.719.719,0,0,0,.719-.719V4.719A.719.719,0,0,0,33.485,4Zm.719,1.438H32.766v5.753H5.438ZM8.315,7.6a.719.719,0,1,0,.719.719A.719.719,0,0,0,8.315,7.6Zm2.877,0a.719.719,0,1,0,.719.719A.719.719,0,0,0,11.192,7.6Zm2.877,0a.719.719,0,1,0,.719.719A.719.719,0,0,0,14.068,7.6ZM4,14.787v18.7a.719.719,0,0,0,.719.719H33.485a.719.719,0,0,0,.719-.719v-18.7H32.766V32.766H5.438V14.787Zm4.315,0a.719.719,0,0,0-.719.719V29.89a.719.719,0,0,0,.719.719h9.349a.719.719,0,0,0,.719-.719V15.506a.719.719,0,0,0-.719-.719Zm12.226,0v1.438H30.609V14.787ZM9.034,16.226h7.911V29.17H9.034Zm11.506,2.157v1.438H30.609V18.383Zm0,3.6v1.438H30.609V21.979Zm0,3.6v1.438H30.609V25.575Zm0,3.6v1.438H30.609V29.17Z" transform="translate(-4 -4)" fill="url(#linear-gradient)"></path>
  </symbol>
  <symbol xmlns="http://www.w3.org/2000/svg" xmlns:xlink="http://www.w3.org/1999/xlink" viewBox="0 0 172.085 50" id="digihive_dark_logo">
    <defs>
      <linearGradient id="linear-gradient" x1="-0.124" y1="0.934" x2="1.97" y2="-0.066" gradientUnits="objectBoundingBox">
        <stop offset="0" stop-color="#ed06ef"></stop>
        <stop offset="0.597" stop-color="#6991f0"></stop>
        <stop offset="1" stop-color="#02f3ed"></stop>
      </linearGradient>
      <linearGradient id="linear-gradient-2" x1="-0.951" y1="1.057" x2="1.142" y2="0.057" xlink:href="#linear-gradient"></linearGradient>
    </defs>
    <g id="digihive_dark_logo" transform="translate(-35.73 -35.852)">
      <g id="Group_9" transform="translate(86.184 48.134)">
        <g id="Group_1" transform="translate(0 0.658)">
          <path id="Path_1" d="M213.242,77.5h4.46V101.7h-4.46V99.662a6.693,6.693,0,0,1-5.6,2.525,7.873,7.873,0,0,1-5.965-2.645,9.738,9.738,0,0,1,0-12.968,7.87,7.87,0,0,1,5.965-2.646,6.694,6.694,0,0,1,5.6,2.525Zm-8.214,19.071a4.664,4.664,0,0,0,3.441,1.366,4.605,4.605,0,0,0,3.423-1.366,5.242,5.242,0,0,0,0-7.02,4.608,4.608,0,0,0-3.423-1.366,4.666,4.666,0,0,0-3.441,1.366,5.193,5.193,0,0,0,0,7.02Z" transform="translate(-199.202 -77.497)"></path>
        </g>
        <g id="Group_2" transform="translate(21.442)">
          <path id="Path_2" d="M271.407,80.865a2.777,2.777,0,0,1-2.732-2.733,2.679,2.679,0,0,1,.813-1.936,2.6,2.6,0,0,1,1.919-.831,2.635,2.635,0,0,1,1.953.831,2.68,2.68,0,0,1,.813,1.936,2.6,2.6,0,0,1-.684,1.783A2.825,2.825,0,0,1,271.407,80.865Zm-2.213,19.365V85.293a2.353,2.353,0,0,1,2.353-2.353h2.109v17.29Z" transform="translate(-268.675 -75.366)"></path>
        </g>
        <g id="Group_3" transform="translate(29.006 7.089)">
          <path id="Path_3" d="M309.468,98.819h2.214v16.46a7.367,7.367,0,0,1-2.646,6.121,9.919,9.919,0,0,1-6.381,2.109,10.822,10.822,0,0,1-4.928-1.072,7.5,7.5,0,0,1-3.268-3.147l3.8-2.179a5.481,5.481,0,0,0,7.849,1.314,4.048,4.048,0,0,0,1.211-3.147v-1.867a6.516,6.516,0,0,1-5.533,2.628,8.16,8.16,0,0,1-6.138-2.577,9.158,9.158,0,0,1,.018-12.535,8.152,8.152,0,0,1,6.12-2.594,6.517,6.517,0,0,1,5.533,2.629h0A2.144,2.144,0,0,1,309.468,98.819Zm-10.46,11.774a5.2,5.2,0,0,0,6.951,0,4.887,4.887,0,0,0,0-6.777,5.2,5.2,0,0,0-6.951,0,4.885,4.885,0,0,0,0,6.777Z" transform="translate(-293.181 -98.334)"></path>
        </g>
        <g id="Group_4" transform="translate(50.44)">
          <path id="Path_4" d="M365.359,80.865a2.777,2.777,0,0,1-2.731-2.733,2.679,2.679,0,0,1,.813-1.936,2.6,2.6,0,0,1,1.919-.831,2.634,2.634,0,0,1,1.953.831,2.68,2.68,0,0,1,.813,1.936,2.6,2.6,0,0,1-.683,1.782A2.825,2.825,0,0,1,365.359,80.865Zm-2.212,19.365V85.293A2.353,2.353,0,0,1,365.5,82.94h2.108v17.29Z" transform="translate(-362.628 -75.366)"></path>
        </g>
        <g id="Group_5" transform="translate(58.878 0.658)">
          <path id="Path_5" d="M399.58,83.928a6.262,6.262,0,0,1,4.686,1.9,7.221,7.221,0,0,1,1.85,5.256V101.7h-4.461V91.64A3.539,3.539,0,0,0,400.721,89a3.4,3.4,0,0,0-2.49-.917,3.672,3.672,0,0,0-2.766,1.073,4.46,4.46,0,0,0-1.038,3.216V101.7h-4.461V77.5h4.461v8.852A5.761,5.761,0,0,1,399.58,83.928Z" transform="translate(-389.967 -77.497)"></path>
        </g>
        <g id="Group_6" transform="translate(77.966)">
          <path id="Path_6" d="M454.542,80.865a2.776,2.776,0,0,1-2.731-2.733,2.679,2.679,0,0,1,.812-1.936,2.6,2.6,0,0,1,1.919-.831,2.635,2.635,0,0,1,1.953.831,2.68,2.68,0,0,1,.813,1.936,2.6,2.6,0,0,1-.684,1.782A2.825,2.825,0,0,1,454.542,80.865ZM452.33,100.23V85.293a2.353,2.353,0,0,1,2.353-2.353h2.108v17.29Z" transform="translate(-451.811 -75.366)"></path>
        </g>
        <g id="Group_7" transform="translate(85.529 7.574)">
          <path id="Path_7" d="M491.3,99.905h3.238l-6.57,17.29h-5.083l-6.57-17.29h4.91l4.192,12.1,3.662-10.521A2.353,2.353,0,0,1,491.3,99.905Z" transform="translate(-476.316 -99.905)"></path>
        </g>
        <g id="Group_8" transform="translate(103.753 7.089)">
          <path id="Path_8" d="M540.03,109.3q.9,3.251,4.876,3.251a4.562,4.562,0,0,0,3.873-1.729l3.6,2.075a8.577,8.577,0,0,1-7.539,3.7A9.3,9.3,0,0,1,537.955,114a9.123,9.123,0,0,1,6.535-15.665,8.245,8.245,0,0,1,6.276,2.629,9.128,9.128,0,0,1,2.473,6.5,10.491,10.491,0,0,1-.173,1.832Zm-.07-3.458h8.818a4.183,4.183,0,0,0-1.573-2.628,4.512,4.512,0,0,0-2.715-.865,4.694,4.694,0,0,0-2.974.916A4.38,4.38,0,0,0,539.96,105.839Z" transform="translate(-535.361 -98.334)"></path>
        </g>
      </g>
      <g id="Group_10" transform="translate(35.73 35.852)">
        <path id="Path_9" d="M35.73,52.452v16.8a7.991,7.991,0,0,0,3.977,6.9l16.772,9.7v-4l-15.043-8.7a4.517,4.517,0,0,1-2.248-3.9v-16.8a4.517,4.517,0,0,1,2.248-3.9l11.585-6.7V55.273l-.576-.347a6.509,6.509,0,0,0-9.862,5.589v.277a7.38,7.38,0,0,0,3.638,6.349l10.259,6.005V35.852l-16.772,9.7A7.991,7.991,0,0,0,35.73,52.452ZM53.02,67.11l-5.056-2.96a3.9,3.9,0,0,1-1.924-3.358v-.277a3.043,3.043,0,0,1,4.623-2.62l2.357,1.419Z" transform="translate(-35.73 -35.852)" fill="url(#linear-gradient)"></path>
        <path id="Path_10" d="M130.931,45.552l-16.772-9.7v4l15.043,8.7a4.517,4.517,0,0,1,2.248,3.9v16.8a4.516,4.516,0,0,1-2.248,3.9l-11.585,6.7V59.316l2.359-1.42a3.054,3.054,0,0,1,4.627,2.621V71.826l2.282-1.32a2.356,2.356,0,0,0,1.176-2.04l0-7.985a6.511,6.511,0,0,0-9.865-5.554l-.578.348v-9.42l-3.458-2v42l16.772-9.7a7.991,7.991,0,0,0,3.977-6.9v-16.8A7.991,7.991,0,0,0,130.931,45.552Z" transform="translate(-89.953 -35.852)" fill="url(#linear-gradient-2)"></path>
      </g>
    </g>
  </symbol>
  <symbol version="1.1" id="digihive_logo_white" xmlns="http://www.w3.org/2000/svg" xmlns:xlink="http://www.w3.org/1999/xlink" x="0px" y="0px" xml:space="preserve" viewBox="0 0 216.92 233.43">
    <g>
      <linearGradient id="SVGID_1_" gradientUnits="userSpaceOnUse" x1="25.3967" y1="190.7523" x2="166.2511" y2="24.0338">
        <stop offset="0"></stop>
        <stop offset="0.597"></stop>
        <stop offset="1"></stop>
      </linearGradient>
      <path d="M35.63,89.55v54.34c0,9.18,4.94,17.73,12.88,22.32l54.34,31.37v-12.94L54.12,156.5
		c-4.49-2.59-7.28-7.43-7.28-12.61V89.55c0-5.19,2.79-10.02,7.28-12.61l37.53-21.67v43.41l-1.87-1.12
		c-6.6-3.97-14.54-4.07-21.25-0.28c-6.7,3.79-10.71,10.65-10.71,18.36v0.9c0,8.42,4.52,16.29,11.79,20.54l33.24,19.42V35.86
		L48.52,67.23C40.57,71.82,35.63,80.37,35.63,89.55z M91.65,136.96l-16.38-9.57c-3.84-2.25-6.23-6.41-6.23-10.86v-0.9
		c0-3.61,1.88-6.83,5.02-8.6c1.53-0.87,3.2-1.3,4.87-1.3c1.75,0,3.5,0.48,5.09,1.43l7.64,4.59L91.65,136.96z"></path>
      <linearGradient id="SVGID_2_" gradientUnits="userSpaceOnUse" x1="49.334" y1="210.976" x2="190.1884" y2="44.2576">
        <stop offset="0"></stop>
        <stop offset="0.597"></stop>
        <stop offset="1"></stop>
      </linearGradient>
      <path d="M168.4,67.23l-54.34-31.37v12.94l48.74,28.14c4.49,2.59,7.28,7.43,7.28,12.61v54.34
		c0,5.19-2.79,10.02-7.28,12.61l-37.53,21.67v-66.42l7.64-4.59c3.1-1.86,6.83-1.91,9.97-0.13c3.14,1.78,5.02,5,5.02,8.61v36.58
		l7.4-4.27c2.36-1.36,3.81-3.88,3.81-6.6l-0.01-25.83c-0.04-7.65-4.03-14.47-10.7-18.24c-6.71-3.8-14.65-3.69-21.26,0.28l-1.87,1.13
		V68.21l-11.2-6.47l0,135.83l54.34-31.37c7.95-4.59,12.88-13.14,12.88-22.32V89.55C181.29,80.37,176.35,71.82,168.4,67.23z"></path>
    </g>
  </symbol>
  <symbol xmlns="http://www.w3.org/2000/svg" xmlns:xlink="http://www.w3.org/1999/xlink" viewBox="0 0 46 46.014" id="chart">
    <defs>
      <linearGradient id="linear-gradient" x1="0.5" x2="0.5" y2="1" gradientUnits="objectBoundingBox">
        <stop offset="0" stop-color="#c52fef"></stop>
        <stop offset="0.597" stop-color="#6991f0"></stop>
        <stop offset="1" stop-color="#24d2ee"></stop>
      </linearGradient>
    </defs>
    <path id="chart" d="M24.984,1.986a1,1,0,0,0-.17.018,23.026,23.026,0,1,0,16.848,7.16,1,1,0,0,0-.182-.191,23.153,23.153,0,0,0-3.4-2.879,1,1,0,0,0-.363-.246A22.877,22.877,0,0,0,25.188,2h0a1,1,0,0,0-.2-.018ZM24,4.025V16.059a9,9,0,1,0,6.609,15.967l8.5,8.5A20.992,20.992,0,1,1,24,4.025Zm2,0c.218.01.434.03.65.047l-.65.65Zm3.121.4a20.893,20.893,0,0,1,2.518.654L26,10.723V7.547q.037-.031.07-.066Zm4.555,1.445a20.9,20.9,0,0,1,2.08,1.092L26.572,16.15c-.19-.034-.379-.07-.572-.092V13.551ZM37.453,8.1a21.061,21.061,0,0,1,1.963,1.652L30.742,18.09a9.014,9.014,0,0,0-2.014-1.266ZM40.8,11.193c.261.3.524.593.768.906a1,1,0,1,0,1.137,1.609,20.906,20.906,0,0,1,1.3,2.4,1,1,0,0,0,.273.588,20.828,20.828,0,0,1,1.383,4.559,1,1,0,1,0,.188,1.273,20.45,20.45,0,0,1,0,4.951,1,1,0,1,0-.189,1.273A20.856,20.856,0,0,1,44.3,33.287a1,1,0,0,0-.295.611A20.921,20.921,0,0,1,42.7,36.283,1,1,0,1,0,41.559,37.9c-.328.42-.673.823-1.031,1.217l-8.5-8.5A9.035,9.035,0,0,0,33.051,29a1,1,0,0,0,.645-1.715,8.735,8.735,0,0,0,0-4.567A1,1,0,0,0,33.059,21a9.025,9.025,0,0,0-.926-1.475ZM39,15a1,1,0,1,0,1,1A1,1,0,0,0,39,15Zm-3,3a1,1,0,1,0,1,1A1,1,0,0,0,36,18Zm6,0a1,1,0,1,0,1,1A1,1,0,0,0,42,18Zm-17.117.006a1,1,0,0,0,.242,0,7,7,0,1,1-.242,0ZM39,21a1,1,0,1,0,1,1A1,1,0,0,0,39,21Zm-3,3a1,1,0,1,0,1,1A1,1,0,0,0,36,24Zm6,0a1,1,0,1,0,1,1A1,1,0,0,0,42,24Zm-3,3a1,1,0,1,0,1,1A1,1,0,0,0,39,27Zm-3,3a1,1,0,1,0,1,1A1,1,0,0,0,36,30Zm6,0a1,1,0,1,0,1,1A1,1,0,0,0,42,30Zm-3,3a1,1,0,1,0,1,1A1,1,0,0,0,39,33Z" transform="translate(-2 -1.986)" fill="url(#linear-gradient)"></path>
  </symbol>
  <symbol xmlns="http://www.w3.org/2000/svg" xmlns:xlink="http://www.w3.org/1999/xlink" viewBox="0 0 32 32" id="marketing">
    <defs>
      <linearGradient id="linear-gradient" x1="0.5" x2="0.5" y2="1" gradientUnits="objectBoundingBox">
        <stop offset="0" stop-color="#c52fef"></stop>
        <stop offset="0.597" stop-color="#6991f0"></stop>
        <stop offset="1" stop-color="#24d2ee"></stop>
      </linearGradient>
    </defs>
    <path id="marketing" d="M18,2A16.021,16.021,0,1,0,31.431,9.319l-.621.621-.4.4a14.7,14.7,0,1,1-3.37-3.776V7.973L25.349,9.667A11.017,11.017,0,1,0,27.2,11.749l-1.008,1.008a9.809,9.809,0,1,1-1.829-2.106L21.9,13.118a6.264,6.264,0,1,0,1.746,2.19l-1.061,1.06a4.892,4.892,0,1,1-1.673-2.262l-2.552,2.552a1.389,1.389,0,1,0,.985.982l8.683-8.683h1.8L33.3,5.478H30.522V2.7L27.827,5.39A15.909,15.909,0,0,0,18,2Z" transform="translate(-2 -2)" fill="url(#linear-gradient)"></path>
  </symbol>
  <symbol xmlns="http://www.w3.org/2000/svg" xmlns:xlink="http://www.w3.org/1999/xlink" viewBox="0 0 64.004 63.999" id="messenger_small">
    <defs>
      <linearGradient id="linear-gradient" x1="0.036" y1="0.979" x2="0.978" y2="0.043" gradientUnits="objectBoundingBox">
        <stop offset="0" stop-color="#c52fef"></stop>
        <stop offset="0.597" stop-color="#6991f0"></stop>
        <stop offset="1" stop-color="#24d2ee"></stop>
      </linearGradient>
    </defs>
    <path id="ico-send-circle" d="M-11762,14225a31.786,31.786,0,0,1-12.455-2.515,31.893,31.893,0,0,1-10.173-6.857,31.933,31.933,0,0,1-6.858-10.173A31.792,31.792,0,0,1-11794,14193a31.778,31.778,0,0,1,2.515-12.454,31.9,31.9,0,0,1,6.858-10.171,31.893,31.893,0,0,1,10.173-6.857A31.786,31.786,0,0,1-11762,14161a31.786,31.786,0,0,1,12.455,2.515,31.893,31.893,0,0,1,10.173,6.857,31.871,31.871,0,0,1,6.858,10.171A31.786,31.786,0,0,1-11730,14193a31.8,31.8,0,0,1-2.516,12.457,31.9,31.9,0,0,1-6.858,10.173,31.893,31.893,0,0,1-10.173,6.857A31.786,31.786,0,0,1-11762,14225Zm15.1-49a1.008,1.008,0,0,0-.108.006.862.862,0,0,0-.258.086l-36.192,15.551a.9.9,0,0,0-.535.811.915.915,0,0,0,.507.832l13.487,6.729,6.729,13.487a.92.92,0,0,0,.814.511h.018a.913.913,0,0,0,.811-.539l15.551-36.192a.906.906,0,0,0-.093-.911A.91.91,0,0,0-11746.9,14176Zm-15.635,34.957v0l-5.711-11.423,18.664-18.66-12.951,30.083Zm-6.983-12.7h0l-11.424-5.712,30.089-12.952-18.664,18.664Z" transform="translate(11794.002 -14161.001)" fill="url(#linear-gradient)"></path>
  </symbol>
  <symbol xmlns="http://www.w3.org/2000/svg" xmlns:xlink="http://www.w3.org/1999/xlink" viewBox="0 0 50.07 41.987" id="money">
    <defs>
      <linearGradient id="linear-gradient" x1="0.5" x2="0.5" y2="1" gradientUnits="objectBoundingBox">
        <stop offset="0" stop-color="#c52fef"></stop>
        <stop offset="0.597" stop-color="#6991f0"></stop>
        <stop offset="1" stop-color="#24d2ee"></stop>
      </linearGradient>
    </defs>
    <g id="money" transform="translate(0.112 -5)">
      <path id="Path_70" d="M32,5a6.017,6.017,0,0,0-6,6,7,7,0,1,0,7,7,6.853,6.853,0,0,0-.094-1.062A6,6,0,0,0,32,5Zm0,2a3.989,3.989,0,0,1,.281,7.969,7.04,7.04,0,0,0-4.25-3.656C28.023,11.207,28,11.106,28,11A3.988,3.988,0,0,1,32,7Zm-.437,1.75-1.5,1.5H31.25v3h1.5V8.75ZM26,13a5,5,0,1,1-5,5A4.985,4.985,0,0,1,26,13Zm-.5,2.281-1.812,1.813h1.406v3.625h1.813V15.281ZM13.469,25a12.427,12.427,0,0,0-5.563,1.25C5.2,27.324.563,29.563.563,29.563a1,1,0,1,0,.875,1.781s4.672-2.242,7.219-3.25A9.893,9.893,0,0,1,13.469,27c5.617,0,5.449,2.527,7.75,3.906a14.634,14.634,0,0,0,3.594,1.25.988.988,0,0,0,.406.125c.012,0,.02,0,.031,0A21.875,21.875,0,0,0,30,33a7.017,7.017,0,0,1,1.5.156h.063a2.992,2.992,0,0,1,.875.344.99.99,0,0,1,.563,1,.955.955,0,0,1-.562,1.031A5.115,5.115,0,0,1,30,36H24.188a27.448,27.448,0,0,1-5.906-.969,1.009,1.009,0,0,0-.562,1.938A27.579,27.579,0,0,0,24.188,38H30a6.642,6.642,0,0,0,3.438-.75,3.087,3.087,0,0,0,.719-.594,1,1,0,0,0,.25-.125l9-6.063a6.641,6.641,0,0,1,3.281-1.156,1.141,1.141,0,0,1,1.063.469.866.866,0,0,1,.125,1.063,4.807,4.807,0,0,1-1.687,1.781c-1.2.852-14.414,9.633-15.969,10.531a15.2,15.2,0,0,1-3.125,1.688c-1.059.3-2.324.277-4.375-.719-1.367-.664-7.156-3.687-9.031-4.656a5.357,5.357,0,0,0-2.781-.781,5.152,5.152,0,0,0-2.469.969L5.75,41.406a1.005,1.005,0,0,0,1.094,1.688l2.688-1.75A3.254,3.254,0,0,1,11,40.688a3.666,3.666,0,0,1,1.781.563c1.859.961,7.559,3.957,9.063,4.688a7.975,7.975,0,0,0,5.781.813,14.693,14.693,0,0,0,3.594-1.875C33.3,43.668,45.84,35.316,47.344,34.25a6.462,6.462,0,0,0,2.375-2.656,3.06,3.06,0,0,0-.375-3.031,3.349,3.349,0,0,0-2.625-1.25,7.3,7.3,0,0,0-2.937.781c-.043-.2.059-.43-.031-.625a2.7,2.7,0,0,0-1.969-1.406,6.174,6.174,0,0,0-3.625.688,2.24,2.24,0,0,0-.344-.781,2.817,2.817,0,0,0-2.031-.906,7.078,7.078,0,0,0-4,1c-1.5.891-5.969,3.711-6.625,4.125a16.337,16.337,0,0,1-2.906-1C21.336,28.637,19.773,25,13.469,25Zm22.156,2.063a1.025,1.025,0,0,1,.656.219c.043.051.117.129.094.406v.031l-4.937,3.375A9.313,9.313,0,0,0,30,31a14.267,14.267,0,0,1-2.031-.219c1.738-1.094,3.891-2.434,4.844-3A5.959,5.959,0,0,1,35.625,27.063ZM40.75,28a2.433,2.433,0,0,1,.656,0c.414.082.465.168.531.313a1.707,1.707,0,0,1,.031.719l-7.062,4.75a3.188,3.188,0,0,0-1.187-1.813l4.125-2.844a646.223,646.223,0,0,1,.313-.25A6.381,6.381,0,0,1,40.75,28Z" fill="url(#linear-gradient)"></path>
    </g>
  </symbol>
  <symbol xmlns="http://www.w3.org/2000/svg" xmlns:xlink="http://www.w3.org/1999/xlink" viewBox="0 0 46 43.521" id="optimalization">
    <defs>
      <linearGradient id="linear-gradient" x1="0.5" x2="0.5" y2="1" gradientUnits="objectBoundingBox">
        <stop offset="0" stop-color="#c52fef"></stop>
        <stop offset="0.597" stop-color="#6991f0"></stop>
        <stop offset="1" stop-color="#24d2ee"></stop>
      </linearGradient>
    </defs>
    <g id="optimalization" transform="translate(-2 -2.563)">
      <path id="Path_76" d="M18.5,2.563a7.514,7.514,0,0,0-7.5,7.5,7.426,7.426,0,0,0,.75,3.25l1.781-.875A5.391,5.391,0,0,1,13,10.063a5.5,5.5,0,0,1,11,0h2A7.514,7.514,0,0,0,18.5,2.563ZM37.188,6.938a1.168,1.168,0,0,0-.125.031A.466.466,0,0,0,37,7a11.044,11.044,0,0,0-7.281,5.594,25.843,25.843,0,0,0-5.469-.656,21.378,21.378,0,0,0-13.562,4.469A12.584,12.584,0,0,0,6.656,22a4.953,4.953,0,0,1-1.187-.594A2.965,2.965,0,0,1,4,18.781a2.442,2.442,0,0,1,1.344-2.344A1,1,0,0,0,4.938,14.5a1.039,1.039,0,0,0-.375.094A4.473,4.473,0,0,0,2,18.781a5.153,5.153,0,0,0,2.344,4.281,6.509,6.509,0,0,0,1.719.844,18.38,18.38,0,0,0-.406,4.875c.188,4.453,3.2,7.719,5.469,9.531h.031a1.124,1.124,0,0,1,.281.281c.016.027.063-.035-.031.25-.3.922-.875,2.313-.875,2.313v.031a2.719,2.719,0,0,0,1.563,3.5v.031l3.219,1.188a2.751,2.751,0,0,0,3.531-1.562s.4-1.125.75-2.062a.694.694,0,0,1,.125-.219c.039,0,.043.016.125.031a18.794,18.794,0,0,0,4.406.531,39.942,39.942,0,0,0,4.438-.281,1.862,1.862,0,0,1,.219,0c.016.027.012.051.031.094,0,.016,0,.016,0,.031.32.957.707,1.848.719,1.875s.023.016.031.031a2.706,2.706,0,0,0,3.469,1.531l3.219-1.187v-.031a2.711,2.711,0,0,0,1.563-3.5l-.5-1.344a1.275,1.275,0,0,0-.094-.156s.031,0,.031,0-.137.051.188-.125a12.885,12.885,0,0,0,5.469-5.812,1.788,1.788,0,0,1,.281-.469c.078-.074.125-.125.438-.125h1.625A2.641,2.641,0,0,0,48,30.531V25.656a2.638,2.638,0,0,0-2.625-2.625H43.75A.929.929,0,0,1,43.406,23a11.129,11.129,0,0,0-6.719-8.312,18.4,18.4,0,0,1,1.5-6.375,1,1,0,0,0-1-1.375ZM35.625,9.75a16.482,16.482,0,0,0-1,5.531,1,1,0,0,0,.688.938,8.935,8.935,0,0,1,6.125,7.219,2.2,2.2,0,0,0,2.313,1.594h1.625a.615.615,0,0,1,.625.625v4.875a.615.615,0,0,1-.625.625H43.75a2.718,2.718,0,0,0-1.812.656,3.131,3.131,0,0,0-.719,1.063,10.732,10.732,0,0,1-4.594,4.906,2.345,2.345,0,0,0-1.25,1.844,1.6,1.6,0,0,0,.219.906h-.031l.063.156.438,1.219a.713.713,0,0,1-.406.938l-3.219,1.219a.727.727,0,0,1-.937-.437v-.031s-.391-.895-.687-1.781a2.144,2.144,0,0,0-.844-1.219,2.2,2.2,0,0,0-1.406-.25,39.6,39.6,0,0,1-4.312.281,17.01,17.01,0,0,1-4.062-.5,2.113,2.113,0,0,0-1.5.156,2.209,2.209,0,0,0-.937,1.313c-.344.922-.781,2.031-.781,2.031a.73.73,0,0,1-.937.438l-3.219-1.219a.714.714,0,0,1-.406-.937c.016-.043.563-1.383.906-2.437a2.36,2.36,0,0,0-.156-1.906,2.806,2.806,0,0,0-.781-.812c-2.023-1.617-4.57-4.492-4.719-8.062-.211-5.066,1.527-8.6,4.25-10.719A19.233,19.233,0,0,1,24.25,13.938a23.893,23.893,0,0,1,5.719.688,1,1,0,0,0,1.156-.562A8.051,8.051,0,0,1,35.625,9.75Zm.844,13.344A1.9,1.9,0,0,0,34.563,25a1.907,1.907,0,1,0,3.813,0A1.9,1.9,0,0,0,36.469,23.094Z" fill="url(#linear-gradient)"></path>
    </g>
  </symbol>
  <symbol xmlns="http://www.w3.org/2000/svg" xmlns:xlink="http://www.w3.org/1999/xlink" viewBox="0 0 50.027 43.014" id="strategy">
    <defs>
      <linearGradient id="linear-gradient" x1="0.5" x2="0.5" y2="1" gradientUnits="objectBoundingBox">
        <stop offset="0" stop-color="#c52fef"></stop>
        <stop offset="0.597" stop-color="#6991f0"></stop>
        <stop offset="1" stop-color="#24d2ee"></stop>
      </linearGradient>
    </defs>
    <g id="strategy" transform="translate(0.014 -6)">
      <path id="Path_78" d="M25.031,6A1,1,0,0,0,24,7v7.527a1.1,1.1,0,0,0,0,.32v8.738l-9,9-4.293-4.293a1,1,0,0,0-1.414,0l-9,9A1,1,0,0,0,.734,38.98a.992.992,0,0,0,.973-.273L10,30.414,13.586,34,.293,47.293A1,1,0,0,0,.734,48.98a.992.992,0,0,0,.973-.273L12.586,37.828l-.035.066,4.555,2.277L21,37.25l4,3,4-3,3.895,2.922,4.555-2.277-.035-.066L48.293,48.707a1,1,0,1,0,1.414-1.414L36.414,34,40,30.414l8.293,8.293a1,1,0,1,0,1.414-1.414l-9-9a1,1,0,0,0-1.414,0L35,32.586l-9-9V15.363l8.367-3.3a1,1,0,0,0,.051-1.84l-9-4.133A.955.955,0,0,0,25.031,6ZM26,8.563l5.453,2.5L26,13.215ZM25,25.414l9.152,9.148a1.021,1.021,0,0,0,.285.293l1.543,1.535-2.875,1.438L29,34.75l-4,3-4-3-4.105,3.078-2.875-1.437,1.543-1.543a1.021,1.021,0,0,0,.293-.285Z" fill="url(#linear-gradient)"></path>
    </g>
  </symbol>
  <symbol xmlns="http://www.w3.org/2000/svg" xmlns:xlink="http://www.w3.org/1999/xlink" viewBox="0 0 46 46" id="think">
    <defs>
      <linearGradient id="linear-gradient" x1="0.5" x2="0.5" y2="1" gradientUnits="objectBoundingBox">
        <stop offset="0" stop-color="#c52fef"></stop>
        <stop offset="0.597" stop-color="#6991f0"></stop>
        <stop offset="1" stop-color="#24d2ee"></stop>
      </linearGradient>
    </defs>
    <g id="think" transform="translate(-2 -2)">
      <path id="Path_74" d="M36,2a6.93,6.93,0,0,0-6.281,4.125A4.25,4.25,0,0,0,29,6a4.987,4.987,0,0,0-3.5,1.438,11.926,11.926,0,0,0-3.031-.406l-1.75-1.75-.281-.25L20.063,5a19.6,19.6,0,0,0-8.469,1.656C7.332,8.594,3,12.938,3,21.531v5.156a2.509,2.509,0,0,0-.406.625A6.253,6.253,0,0,0,2,30.063a4.923,4.923,0,0,0,2.125,3.906,4.954,4.954,0,0,0,1.531.813,28.34,28.34,0,0,0,3.031,6.313C10.848,44.453,14.242,48,19,48s8.152-3.547,10.313-6.906a28.343,28.343,0,0,0,3.031-6.312A5.407,5.407,0,0,0,36,30.063a6.254,6.254,0,0,0-.594-2.75A2.509,2.509,0,0,0,35,26.688V21.531c0-.684-.039-1.344-.094-1.969A5.326,5.326,0,0,0,37,20a5.888,5.888,0,0,0,4.375-2.062A5.383,5.383,0,0,0,42,18a5.971,5.971,0,0,0,.25-11.937A6.929,6.929,0,0,0,36,2Zm0,2a5,5,0,0,1,4.719,3.375l.25.719.781-.062C41.969,8.016,42.035,8,42,8a4,4,0,0,1,0,8,3.763,3.763,0,0,1-.75-.062l-.625-.125-.375.5A4,4,0,0,1,37,18a3.945,3.945,0,0,1-3.25-1.687l-.406-.562-.656.156a2.889,2.889,0,0,1-3.281-1.437l-.25-.437-.5-.062A2.994,2.994,0,0,1,29,8a2.942,2.942,0,0,1,.938.188l.969.313.313-.969A5.013,5.013,0,0,1,36,4ZM18.688,7c.426-.016.742,0,.875,0l2.031,2.031L22.031,9a11.511,11.511,0,0,1,2.313.25,4.839,4.839,0,0,0,3.688,6.563A4.9,4.9,0,0,0,32,18a3.949,3.949,0,0,0,.625-.094c.02.023.043.039.063.063A19.068,19.068,0,0,1,33,21.531v5.875l.281.313a1.315,1.315,0,0,1,.313.469A4.186,4.186,0,0,1,34,30.063a2.78,2.78,0,0,1-1.312,2.281,5.984,5.984,0,0,1-1.437.781l-.5.156-.156.5A28.977,28.977,0,0,1,27.625,40c-1.992,3.1-4.883,6-8.625,6s-6.633-2.9-8.625-6a28.976,28.976,0,0,1-2.969-6.219l-.156-.5-.5-.156a5.985,5.985,0,0,1-1.437-.781A2.78,2.78,0,0,1,4,30.063a4.186,4.186,0,0,1,.406-1.875,1.313,1.313,0,0,1,.313-.469L5,27.406V21.531c0-7.949,3.668-11.363,7.406-13.063A16.89,16.89,0,0,1,18.688,7ZM33,11a1,1,0,1,0,1,1A1,1,0,0,0,33,11Zm4,0a1,1,0,1,0,1,1A1,1,0,0,0,37,11Zm4,0a1,1,0,1,0,1,1A1,1,0,0,0,41,11ZM21.813,14.063a1,1,0,0,0-.594.344C17.137,19.3,7.938,20.063,7.938,20.063A1,1,0,0,0,7,20.906l-1,6a1.012,1.012,0,0,0,2,.313l.875-5.312c1.2-.082,8.355-.723,13.063-5.406a15.838,15.838,0,0,0,7.156,5.25L30,27.219a1.012,1.012,0,0,0,2-.312l-1-6a1,1,0,0,0-.719-.812s-4.984-1.566-7.437-5.562A1,1,0,0,0,21.813,14.063ZM14.5,26a1.625,1.625,0,0,0-.312.031A3.512,3.512,0,0,0,11,29.5a1,1,0,1,0,2,0,1.5,1.5,0,0,1,.375-1,1.516,1.516,0,0,0,2.25,0,1.5,1.5,0,0,1,.375,1,1,1,0,1,0,2,0,3.512,3.512,0,0,0-3.187-3.469A1.625,1.625,0,0,0,14.5,26Zm9,0A3.514,3.514,0,0,0,20,29.5a1,1,0,1,0,2,0,1.5,1.5,0,0,1,.375-1,1.516,1.516,0,0,0,2.25,0,1.5,1.5,0,0,1,.375,1,1,1,0,1,0,2,0A3.514,3.514,0,0,0,23.5,26Z" fill="url(#linear-gradient)"></path>
    </g>
  </symbol>
  <symbol xmlns="http://www.w3.org/2000/svg" xmlns:xlink="http://www.w3.org/1999/xlink" viewBox="0 0 50 46" id="user_group">
    <defs>
      <linearGradient id="linear-gradient" x1="0.5" x2="0.5" y2="1" gradientUnits="objectBoundingBox">
        <stop offset="0" stop-color="#c52fef"></stop>
        <stop offset="0.597" stop-color="#6991f0"></stop>
        <stop offset="1" stop-color="#24d2ee"></stop>
      </linearGradient>
    </defs>
    <g id="user-group" transform="translate(0 -2)">
      <path id="Path_77" d="M17,2a6,6,0,0,0-3.531,10.844,8.036,8.036,0,0,0-2.156,1.563A6.884,6.884,0,0,0,9,14,7,7,0,0,0,5.188,26.875,9.01,9.01,0,0,0,0,35v4.5a1,1,0,0,0,.406.813,7.678,7.678,0,0,0,2.063.906A22.974,22.974,0,0,0,9,42a22.974,22.974,0,0,0,6.531-.781c.176-.051.316-.1.469-.156V45.5a1,1,0,0,0,.406.813,7.677,7.677,0,0,0,2.063.906A22.973,22.973,0,0,0,25,48a22.974,22.974,0,0,0,6.531-.781,7.679,7.679,0,0,0,2.063-.906A1,1,0,0,0,34,45.5V41.063c.152.055.293.105.469.156A22.973,22.973,0,0,0,41,42a22.974,22.974,0,0,0,6.531-.781,7.679,7.679,0,0,0,2.063-.906A1,1,0,0,0,50,39.5V35a9.01,9.01,0,0,0-5.187-8.125A7,7,0,0,0,41,14a6.916,6.916,0,0,0-2.469.469,8.059,8.059,0,0,0-2.187-1.625,6,6,0,1,0-7.063,0,7.964,7.964,0,0,0-4.375,5.938,7.942,7.942,0,0,0-4.375-5.937A6,6,0,0,0,17,2Zm0,2a4,4,0,1,1-4,4A3.983,3.983,0,0,1,17,4ZM32.813,4a4,4,0,1,1-4,4A3.983,3.983,0,0,1,32.813,4ZM17,14a5.928,5.928,0,0,1,6,6v.313a6.987,6.987,0,0,0-1.812,12.563A9.088,9.088,0,0,0,18,35.406V35a9.01,9.01,0,0,0-5.187-8.125,6.989,6.989,0,0,0,.375-11.469A5.765,5.765,0,0,1,17,14Zm15.813,0a5.767,5.767,0,0,1,3.906,1.469,7,7,0,0,0,.469,11.406A9.01,9.01,0,0,0,32,35v.406a9.088,9.088,0,0,0-3.187-2.531,6.995,6.995,0,0,0-2-12.625V20A5.928,5.928,0,0,1,32.813,14ZM9,16a5,5,0,1,1-5,5A4.984,4.984,0,0,1,9,16Zm32,0a5,5,0,1,1-2.531.688c.008,0,.023,0,.031,0a.99.99,0,0,0,.406-.187c.035-.016.059-.047.094-.062a.467.467,0,0,0,.063-.031A4.927,4.927,0,0,1,41,16ZM25,22a5,5,0,1,1-5,5A4.985,4.985,0,0,1,25,22ZM9,28a7.013,7.013,0,0,1,7,7v3.844a2.789,2.789,0,0,1-1.031.438A20.888,20.888,0,0,1,9,40a20.888,20.888,0,0,1-5.969-.719A2.79,2.79,0,0,1,2,38.844V35A7.013,7.013,0,0,1,9,28Zm32,0a7.013,7.013,0,0,1,7,7v3.844a2.789,2.789,0,0,1-1.031.438A20.888,20.888,0,0,1,41,40a20.887,20.887,0,0,1-5.969-.719A2.789,2.789,0,0,1,34,38.844V35A7.013,7.013,0,0,1,41,28ZM25,34a7.013,7.013,0,0,1,7,7v3.844a2.789,2.789,0,0,1-1.031.438A20.888,20.888,0,0,1,25,46a20.887,20.887,0,0,1-5.969-.719A2.789,2.789,0,0,1,18,44.844V41A7.013,7.013,0,0,1,25,34Z" fill="url(#linear-gradient)"></path>
    </g>
  </symbol>
</svg>