<?xml version="1.0" encoding="UTF-8"?> <svg xmlns="http://www.w3.org/2000/svg" xmlns:xlink="http://www.w3.org/1999/xlink" width="46" height="46" viewBox="0 0 46 46"><defs><linearGradient id="linear-gradient" x1="0.5" x2="0.5" y2="1" gradientUnits="objectBoundingBox"><stop offset="0" stop-color="#c52fef"></stop><stop offset="0.597" stop-color="#6991f0"></stop><stop offset="1" stop-color="#24d2ee"></stop></linearGradient></defs><g id="think" transform="translate(-2 -2)"><path id="Path_74" data-name="Path 74" d="M36,2a6.93,6.93,0,0,0-6.281,4.125A4.25,4.25,0,0,0,29,6a4.987,4.987,0,0,0-3.5,1.438,11.926,11.926,0,0,0-3.031-.406l-1.75-1.75-.281-.25L20.063,5a19.6,19.6,0,0,0-8.469,1.656C7.332,8.594,3,12.938,3,21.531v5.156a2.509,2.509,0,0,0-.406.625A6.253,6.253,0,0,0,2,30.063a4.923,4.923,0,0,0,2.125,3.906,4.954,4.954,0,0,0,1.531.813,28.34,28.34,0,0,0,3.031,6.313C10.848,44.453,14.242,48,19,48s8.152-3.547,10.313-6.906a28.343,28.343,0,0,0,3.031-6.312A5.407,5.407,0,0,0,36,30.063a6.254,6.254,0,0,0-.594-2.75A2.509,2.509,0,0,0,35,26.688V21.531c0-.684-.039-1.344-.094-1.969A5.326,5.326,0,0,0,37,20a5.888,5.888,0,0,0,4.375-2.062A5.383,5.383,0,0,0,42,18a5.971,5.971,0,0,0,.25-11.937A6.929,6.929,0,0,0,36,2Zm0,2a5,5,0,0,1,4.719,3.375l.25.719.781-.062C41.969,8.016,42.035,8,42,8a4,4,0,0,1,0,8,3.763,3.763,0,0,1-.75-.062l-.625-.125-.375.5A4,4,0,0,1,37,18a3.945,3.945,0,0,1-3.25-1.687l-.406-.562-.656.156a2.889,2.889,0,0,1-3.281-1.437l-.25-.437-.5-.062A2.994,2.994,0,0,1,29,8a2.942,2.942,0,0,1,.938.188l.969.313.313-.969A5.013,5.013,0,0,1,36,4ZM18.688,7c.426-.016.742,0,.875,0l2.031,2.031L22.031,9a11.511,11.511,0,0,1,2.313.25,4.839,4.839,0,0,0,3.688,6.563A4.9,4.9,0,0,0,32,18a3.949,3.949,0,0,0,.625-.094c.02.023.043.039.063.063A19.068,19.068,0,0,1,33,21.531v5.875l.281.313a1.315,1.315,0,0,1,.313.469A4.186,4.186,0,0,1,34,30.063a2.78,2.78,0,0,1-1.312,2.281,5.984,5.984,0,0,1-1.437.781l-.5.156-.156.5A28.977,28.977,0,0,1,27.625,40c-1.992,3.1-4.883,6-8.625,6s-6.633-2.9-8.625-6a28.976,28.976,0,0,1-2.969-6.219l-.156-.5-.5-.156a5.985,5.985,0,0,1-1.437-.781A2.78,2.78,0,0,1,4,30.063a4.186,4.186,0,0,1,.406-1.875,1.313,1.313,0,0,1,.313-.469L5,27.406V21.531c0-7.949,3.668-11.363,7.406-13.063A16.89,16.89,0,0,1,18.688,7ZM33,11a1,1,0,1,0,1,1A1,1,0,0,0,33,11Zm4,0a1,1,0,1,0,1,1A1,1,0,0,0,37,11Zm4,0a1,1,0,1,0,1,1A1,1,0,0,0,41,11ZM21.813,14.063a1,1,0,0,0-.594.344C17.137,19.3,7.938,20.063,7.938,20.063A1,1,0,0,0,7,20.906l-1,6a1.012,1.012,0,0,0,2,.313l.875-5.312c1.2-.082,8.355-.723,13.063-5.406a15.838,15.838,0,0,0,7.156,5.25L30,27.219a1.012,1.012,0,0,0,2-.312l-1-6a1,1,0,0,0-.719-.812s-4.984-1.566-7.437-5.562A1,1,0,0,0,21.813,14.063ZM14.5,26a1.625,1.625,0,0,0-.312.031A3.512,3.512,0,0,0,11,29.5a1,1,0,1,0,2,0,1.5,1.5,0,0,1,.375-1,1.516,1.516,0,0,0,2.25,0,1.5,1.5,0,0,1,.375,1,1,1,0,1,0,2,0,3.512,3.512,0,0,0-3.187-3.469A1.625,1.625,0,0,0,14.5,26Zm9,0A3.514,3.514,0,0,0,20,29.5a1,1,0,1,0,2,0,1.5,1.5,0,0,1,.375-1,1.516,1.516,0,0,0,2.25,0,1.5,1.5,0,0,1,.375,1,1,1,0,1,0,2,0A3.514,3.514,0,0,0,23.5,26Z" fill="url(#linear-gradient)"></path></g></svg> 