<?xml version="1.0" encoding="UTF-8"?> <svg xmlns="http://www.w3.org/2000/svg" xmlns:xlink="http://www.w3.org/1999/xlink" width="50" height="46" viewBox="0 0 50 46"><defs><linearGradient id="linear-gradient" x1="0.5" x2="0.5" y2="1" gradientUnits="objectBoundingBox"><stop offset="0" stop-color="#c52fef"></stop><stop offset="0.597" stop-color="#6991f0"></stop><stop offset="1" stop-color="#24d2ee"></stop></linearGradient></defs><g id="user-group" transform="translate(0 -2)"><path id="Path_77" data-name="Path 77" d="M17,2a6,6,0,0,0-3.531,10.844,8.036,8.036,0,0,0-2.156,1.563A6.884,6.884,0,0,0,9,14,7,7,0,0,0,5.188,26.875,9.01,9.01,0,0,0,0,35v4.5a1,1,0,0,0,.406.813,7.678,7.678,0,0,0,2.063.906A22.974,22.974,0,0,0,9,42a22.974,22.974,0,0,0,6.531-.781c.176-.051.316-.1.469-.156V45.5a1,1,0,0,0,.406.813,7.677,7.677,0,0,0,2.063.906A22.973,22.973,0,0,0,25,48a22.974,22.974,0,0,0,6.531-.781,7.679,7.679,0,0,0,2.063-.906A1,1,0,0,0,34,45.5V41.063c.152.055.293.105.469.156A22.973,22.973,0,0,0,41,42a22.974,22.974,0,0,0,6.531-.781,7.679,7.679,0,0,0,2.063-.906A1,1,0,0,0,50,39.5V35a9.01,9.01,0,0,0-5.187-8.125A7,7,0,0,0,41,14a6.916,6.916,0,0,0-2.469.469,8.059,8.059,0,0,0-2.187-1.625,6,6,0,1,0-7.063,0,7.964,7.964,0,0,0-4.375,5.938,7.942,7.942,0,0,0-4.375-5.937A6,6,0,0,0,17,2Zm0,2a4,4,0,1,1-4,4A3.983,3.983,0,0,1,17,4ZM32.813,4a4,4,0,1,1-4,4A3.983,3.983,0,0,1,32.813,4ZM17,14a5.928,5.928,0,0,1,6,6v.313a6.987,6.987,0,0,0-1.812,12.563A9.088,9.088,0,0,0,18,35.406V35a9.01,9.01,0,0,0-5.187-8.125,6.989,6.989,0,0,0,.375-11.469A5.765,5.765,0,0,1,17,14Zm15.813,0a5.767,5.767,0,0,1,3.906,1.469,7,7,0,0,0,.469,11.406A9.01,9.01,0,0,0,32,35v.406a9.088,9.088,0,0,0-3.187-2.531,6.995,6.995,0,0,0-2-12.625V20A5.928,5.928,0,0,1,32.813,14ZM9,16a5,5,0,1,1-5,5A4.984,4.984,0,0,1,9,16Zm32,0a5,5,0,1,1-2.531.688c.008,0,.023,0,.031,0a.99.99,0,0,0,.406-.187c.035-.016.059-.047.094-.062a.467.467,0,0,0,.063-.031A4.927,4.927,0,0,1,41,16ZM25,22a5,5,0,1,1-5,5A4.985,4.985,0,0,1,25,22ZM9,28a7.013,7.013,0,0,1,7,7v3.844a2.789,2.789,0,0,1-1.031.438A20.888,20.888,0,0,1,9,40a20.888,20.888,0,0,1-5.969-.719A2.79,2.79,0,0,1,2,38.844V35A7.013,7.013,0,0,1,9,28Zm32,0a7.013,7.013,0,0,1,7,7v3.844a2.789,2.789,0,0,1-1.031.438A20.888,20.888,0,0,1,41,40a20.887,20.887,0,0,1-5.969-.719A2.789,2.789,0,0,1,34,38.844V35A7.013,7.013,0,0,1,41,28ZM25,34a7.013,7.013,0,0,1,7,7v3.844a2.789,2.789,0,0,1-1.031.438A20.888,20.888,0,0,1,25,46a20.887,20.887,0,0,1-5.969-.719A2.789,2.789,0,0,1,18,44.844V41A7.013,7.013,0,0,1,25,34Z" fill="url(#linear-gradient)"></path></g></svg> 